<svg xmlns="http://www.w3.org/2000/svg" viewBox="0 0 40 32">
<style type="text/css">
*{fill:none;stroke:#444;stroke-width:1.5;}
</style>
<path d="M20,32c0,0,0-14.3,0-32"/>
<circle cx="20" cy="16" r="4"/>
<path d="M32,20c-2.2,0-4-1.8-4-4"/>
<path d="M32,12c-2.2,0-4,1.8-4,4"/>
<path d="M32,20c4.4,0,8,0,8,0"/>
<path d="M32,12c4.4,0,8,0,8,0"/>
<path d="M32,20c0,0,0-3.6,0-8"/>
<path d="M40,28c-6.6,0-12-5.4-12-12"/>
<path d="M40,4c-6.6,0-12,5.4-12,12"/>
<path d="M12,16c0,2.2-1.8,4-4,4"/>
<path d="M12,16c0-2.2-1.8-4-4-4"/>
<path d="M0,20c0,0,3.6,0,8,0"/>
<path d="M0,12c0,0,3.6,0,8,0"/>
<path d="M8,12c0,4.4,0,8,0,8"/>
<path d="M12,16c0,6.6-5.4,12-12,12"/>
<path d="M12,16C12,9.4,6.6,4,0,4"/>
</svg>