<?xml version="1.0" encoding="utf-8"?>
<!-- Generator: Adobe Illustrator 23.1.0, SVG Export Plug-In . SVG Version: 6.00 Build 0)  -->
<svg version="1.1" id="Layer_1" xmlns="http://www.w3.org/2000/svg" xmlns:xlink="http://www.w3.org/1999/xlink" x="0px" y="0px"
	 viewBox="0 0 64 64" style="enable-background:new 0 0 64 64;" xml:space="preserve">
<style type="text/css">
	.st0{fill:#CC5A29;}
	.st1{fill:none;stroke:#000000;stroke-width:2;stroke-miterlimit:10;}
	.st2{fill:none;stroke:#FFFFFF;stroke-width:2;stroke-miterlimit:10;}
</style>
<g id="XMLID_1_">
	<g>
		<path class="st0" d="M48,26c0,17.7,0,32,0,32c0,2.2-7.2,4-16,4s-16-1.8-16-4c0,0,0-14.3,0-32c0,2.2,7.2,4,16,4S48,28.2,48,26z"/>
		<ellipse class="st0" cx="32" cy="26" rx="16" ry="4"/>
	</g>
	<g>
		<path class="st1" d="M16,26c0-13.3,7.2-24,16-24"/>
		<path class="st1" d="M48,26c0-13.3-7.2-24-16-24"/>
		<path class="st1" d="M16,26c0-2.2,7.2-4,16-4"/>
		<path class="st1" d="M48,26c0-2.2-7.2-4-16-4"/>
		<path class="st1" d="M16,26c0,2.2,7.2,4,16,4"/>
		<path class="st1" d="M48,26c0,2.2-7.2,4-16,4"/>
		<path class="st1" d="M16,26c0,17.7,0,32,0,32"/>
		<path class="st1" d="M48,26c0,17.7,0,32,0,32"/>
		<path class="st1" d="M16,58c0,2.2,7.2,4,16,4"/>
		<path class="st1" d="M48,58c0,2.2-7.2,4-16,4"/>
	</g>
</g>
<path class="st2" d="M16,42c0,0,14.3,0,32,0"/>
<circle class="st2" cx="32" cy="42" r="4"/>
<path class="st2" d="M28,54c0-2.2,1.8-4,4-4"/>
<path class="st2" d="M36,54c0-2.2-1.8-4-4-4"/>
<path class="st2" d="M28,54c0,4.4,0,8,0,8"/>
<path class="st2" d="M36,54c0,4.4,0,8,0,8"/>
<path class="st2" d="M28,54c0,0,3.6,0,8,0"/>
<path class="st2" d="M20,62c0-6.6,5.4-12,12-12"/>
<path class="st2" d="M44,62c0-6.6-5.4-12-12-12"/>
<g id="XMLID_2_">
	<g>
	</g>
	<g>
		<path class="st1" d="M16,26c0-13.3,7.2-24,16-24"/>
		<path class="st1" d="M48,26c0-13.3-7.2-24-16-24"/>
		<path class="st1" d="M16,26c0-2.2,7.2-4,16-4"/>
		<path class="st1" d="M48,26c0-2.2-7.2-4-16-4"/>
		<path class="st1" d="M16,26c0,2.2,7.2,4,16,4"/>
		<path class="st1" d="M48,26c0,2.2-7.2,4-16,4"/>
		<path class="st1" d="M16,26c0,17.7,0,32,0,32"/>
		<path class="st1" d="M48,26c0,17.7,0,32,0,32"/>
		<path class="st1" d="M16,58c0,2.2,7.2,4,16,4"/>
		<path class="st1" d="M48,58c0,2.2-7.2,4-16,4"/>
	</g>
</g>
<g>
</g>
<g>
</g>
<g>
</g>
<g>
</g>
<g>
</g>
<g>
</g>
</svg>
